<?xml version="1.0" encoding="UTF-8"?>
<svg id="Layer_1" data-name="Layer 1" xmlns="http://www.w3.org/2000/svg" xmlns:xlink="http://www.w3.org/1999/xlink" viewBox="0 0 252 199.6">
  <defs>
    <style>
      .cls-1 {
        fill: #cde6c3;
      }

      .cls-2 {
        clip-path: url(#clippath-6);
      }

      .cls-3 {
        clip-path: url(#clippath-7);
      }

      .cls-4 {
        clip-path: url(#clippath-17);
      }

      .cls-5 {
        clip-path: url(#clippath-15);
      }

      .cls-6 {
        clip-path: url(#clippath-18);
      }

      .cls-7 {
        clip-path: url(#clippath-4);
      }

      .cls-8 {
        stroke-width: 1.1px;
      }

      .cls-8, .cls-9, .cls-10, .cls-11, .cls-12, .cls-13, .cls-14, .cls-15, .cls-16, .cls-17, .cls-18, .cls-19 {
        fill: none;
      }

      .cls-8, .cls-9, .cls-10, .cls-11, .cls-13, .cls-14, .cls-15, .cls-17, .cls-18, .cls-20, .cls-19, .cls-21, .cls-22 {
        stroke-linejoin: round;
      }

      .cls-8, .cls-9, .cls-22 {
        stroke: #fff;
      }

      .cls-23 {
        fill: #b3cde3;
      }

      .cls-9, .cls-13, .cls-14, .cls-15, .cls-20, .cls-22 {
        stroke-width: .8px;
      }

      .cls-10 {
        stroke: #d1d3d4;
        stroke-width: .5px;
      }

      .cls-10, .cls-15, .cls-18 {
        stroke-linecap: square;
      }

      .cls-24 {
        clip-path: url(#clippath-9);
      }

      .cls-25 {
        clip-path: url(#clippath-10);
      }

      .cls-11 {
        stroke-width: .8px;
      }

      .cls-11, .cls-14, .cls-16, .cls-17, .cls-18, .cls-20, .cls-21 {
        stroke: #58595b;
      }

      .cls-11, .cls-14, .cls-16, .cls-17, .cls-20, .cls-19, .cls-21 {
        stroke-linecap: round;
      }

      .cls-26 {
        clip-path: url(#clippath-11);
      }

      .cls-27 {
        clip-path: url(#clippath-1);
      }

      .cls-13, .cls-15, .cls-19 {
        stroke: #3f3f3f;
      }

      .cls-28 {
        clip-path: url(#clippath-5);
      }

      .cls-29 {
        clip-path: url(#clippath-20);
      }

      .cls-30 {
        clip-path: url(#clippath-8);
      }

      .cls-31 {
        fill: #ffd9a8;
      }

      .cls-32 {
        clip-path: url(#clippath-3);
      }

      .cls-33 {
        clip-path: url(#clippath-12);
      }

      .cls-34 {
        fill: #231f20;
      }

      .cls-34, .cls-35 {
        font-family: TimesNewRomanPSMT, 'Times New Roman';
        font-size: 8px;
      }

      .cls-36 {
        clip-path: url(#clippath-14);
      }

      .cls-37 {
        clip-path: url(#clippath-19);
      }

      .cls-38 {
        fill: #decae3;
      }

      .cls-16 {
        stroke-miterlimit: 10;
      }

      .cls-39, .cls-22, .cls-35 {
        fill: #58595b;
      }

      .cls-17, .cls-21 {
        stroke-width: .8px;
      }

      .cls-40 {
        clip-path: url(#clippath-16);
      }

      .cls-41 {
        clip-path: url(#clippath-2);
      }

      .cls-42 {
        clip-path: url(#clippath-13);
      }

      .cls-19 {
        stroke-width: 4px;
      }

      .cls-43 {
        clip-path: url(#clippath);
      }
    </style>
    <clipPath id="clippath">
      <rect class="cls-12" x="25.2" y="16" width="222.8" height="166"/>
    </clipPath>
    <clipPath id="clippath-1">
      <rect class="cls-12" x="25.2" y="16" width="222.8" height="166"/>
    </clipPath>
    <clipPath id="clippath-2">
      <rect class="cls-12" x="25.2" y="16" width="222.8" height="166"/>
    </clipPath>
    <clipPath id="clippath-3">
      <rect class="cls-12" x="25.2" y="16" width="222.8" height="166"/>
    </clipPath>
    <clipPath id="clippath-4">
      <rect class="cls-12" x="25.2" y="16" width="222.8" height="166"/>
    </clipPath>
    <clipPath id="clippath-5">
      <rect class="cls-12" x="25.2" y="16" width="222.8" height="166"/>
    </clipPath>
    <clipPath id="clippath-6">
      <rect class="cls-12" x="25.2" y="16" width="222.8" height="166"/>
    </clipPath>
    <clipPath id="clippath-7">
      <rect class="cls-12" x="25.2" y="16" width="222.8" height="166"/>
    </clipPath>
    <clipPath id="clippath-8">
      <rect class="cls-12" x="25.2" y="16" width="222.8" height="166"/>
    </clipPath>
    <clipPath id="clippath-9">
      <rect class="cls-12" x="25.2" y="16" width="222.8" height="166"/>
    </clipPath>
    <clipPath id="clippath-10">
      <rect class="cls-12" x="25.2" y="16" width="222.8" height="166"/>
    </clipPath>
    <clipPath id="clippath-11">
      <rect class="cls-12" x="25.2" y="16" width="222.8" height="166"/>
    </clipPath>
    <clipPath id="clippath-12">
      <rect class="cls-12" x="25.2" y="16" width="222.8" height="166"/>
    </clipPath>
    <clipPath id="clippath-13">
      <rect class="cls-12" x="25.2" y="16" width="222.8" height="166"/>
    </clipPath>
    <clipPath id="clippath-14">
      <rect class="cls-12" x="25.2" y="16" width="222.8" height="166"/>
    </clipPath>
    <clipPath id="clippath-15">
      <rect class="cls-12" x="25.2" y="16" width="222.8" height="166"/>
    </clipPath>
    <clipPath id="clippath-16">
      <rect class="cls-12" x="25.2" y="16" width="222.8" height="166"/>
    </clipPath>
    <clipPath id="clippath-17">
      <rect class="cls-12" x="42.9" y="128.2" width="8.4" height="8.4"/>
    </clipPath>
    <clipPath id="clippath-18">
      <rect class="cls-12" x="99" y="129.5" width="8.4" height="8.4"/>
    </clipPath>
    <clipPath id="clippath-19">
      <rect class="cls-12" x="155.1" y="136.8" width="8.4" height="8.4"/>
    </clipPath>
    <clipPath id="clippath-20">
      <rect class="cls-12" x="211.2" y="148.5" width="8.4" height="8.4"/>
    </clipPath>
  </defs>
  <line class="cls-20" x1="47.1" y1="174.5" x2="47.1" y2="176.7"/>
  <line class="cls-14" x1="47.1" y1="174.5" x2="47.1" y2="176.7"/>
  <line class="cls-20" x1="103.2" y1="174.5" x2="103.2" y2="176.7"/>
  <line class="cls-14" x1="103.2" y1="174.5" x2="103.2" y2="176.7"/>
  <line class="cls-20" x1="159.3" y1="174.5" x2="159.3" y2="176.7"/>
  <line class="cls-14" x1="159.3" y1="174.5" x2="159.3" y2="176.7"/>
  <line class="cls-20" x1="215.4" y1="174.5" x2="215.4" y2="176.7"/>
  <line class="cls-14" x1="215.4" y1="174.5" x2="215.4" y2="176.7"/>
  <line class="cls-11" x1="25.2" y1="174.5" x2="248" y2="174.5"/>
  <text class="cls-34" transform="translate(28.8 184.8)"><tspan x="0" y="0">Flowbot3D</tspan></text>
  <text class="cls-34" transform="translate(82.6 184.8)"><tspan x="0" y="0">Normal-only</tspan></text>
  <text class="cls-34" transform="translate(151.5 184.8)"><tspan x="0" y="0">Ours</tspan><tspan x="-10.6" y="7">w/o normal</tspan></text>
  <text class="cls-34" transform="translate(207.6 184.8)"><tspan x="0" y="0">Ours</tspan><tspan x="-8.6" y="7">w/ normal</tspan></text>
  <text class="cls-34" transform="translate(17.4 176.6)"><tspan x="0" y="0">0</tspan></text>
  <text class="cls-34" transform="translate(12.8 144.6)"><tspan x="0" y="0">10</tspan></text>
  <text class="cls-34" transform="translate(12.6 112.6)"><tspan x="0" y="0">20</tspan></text>
  <text class="cls-34" transform="translate(13.1 80.6)"><tspan x="0" y="0">30</tspan></text>
  <text class="cls-34" transform="translate(12.3 48.7)"><tspan x="0" y="0">40</tspan></text>
  <line class="cls-10" x1="25.2" y1="142.5" x2="248" y2="142.5"/>
  <line class="cls-10" x1="25.2" y1="110.5" x2="248" y2="110.5"/>
  <line class="cls-10" x1="25.2" y1="78.5" x2="248" y2="78.5"/>
  <line class="cls-10" x1="25.2" y1="46.6" x2="248" y2="46.6"/>
  <g class="cls-43">
    <polygon class="cls-31" points="54.1 174.5 40.1 174.5 38.6 173 37.3 171.4 36.3 169.9 35.7 168.4 35.3 166.9 35.3 165.3 35.5 163.8 35.8 162.3 36.2 160.8 36.5 159.2 36.8 157.7 37.1 156.2 37.2 154.7 37.3 153.1 37.3 151.6 37.3 150.1 37.2 148.6 37.1 147 37.1 145.5 37.1 144 37 142.5 37 140.9 37 139.4 37 137.9 37 136.4 37 134.8 37 133.3 36.9 131.8 36.9 130.3 36.8 128.7 36.7 127.2 36.7 125.7 36.7 124.2 36.7 122.6 36.8 121.1 36.9 119.6 37.1 118.1 37.2 116.6 37.4 115 37.5 113.5 37.8 112 38 110.5 38.4 108.9 38.8 107.4 39.2 105.9 39.7 104.4 40.2 102.8 40.6 101.3 41 99.8 41.3 98.3 41.5 96.7 41.7 95.2 41.9 93.7 42.1 92.2 42.2 90.6 42.4 89.1 42.6 87.6 42.7 86.1 42.9 84.5 43.1 83 43.3 81.5 43.5 80 43.7 78.4 43.9 76.9 44.1 75.4 44.3 73.9 44.5 72.3 44.7 70.8 44.8 69.3 44.9 67.8 45.1 66.2 45.2 64.7 45.4 63.2 45.5 61.7 45.7 60.1 45.8 58.6 46 57.1 46.1 55.6 46.2 54 46.3 52.5 46.4 51 46.5 49.5 46.6 47.9 46.6 46.4 46.7 44.9 46.7 43.4 46.8 41.8 46.8 40.3 46.8 38.8 46.9 37.3 46.9 35.7 46.9 34.2 46.9 32.7 47 31.2 47 29.6 47 28.1 47 26.6 47 25.1 47 23.5 47.2 23.5 47.2 25.1 47.2 26.6 47.2 28.1 47.2 29.6 47.2 31.2 47.2 32.7 47.2 34.2 47.2 35.7 47.3 37.3 47.3 38.8 47.3 40.3 47.4 41.8 47.4 43.4 47.5 44.9 47.5 46.4 47.6 47.9 47.6 49.5 47.7 51 47.8 52.5 47.9 54 48 55.6 48.2 57.1 48.3 58.6 48.4 60.1 48.6 61.7 48.8 63.2 48.9 64.7 49 66.2 49.2 67.8 49.3 69.3 49.5 70.8 49.6 72.3 49.8 73.9 50 75.4 50.2 76.9 50.4 78.4 50.6 80 50.8 81.5 51 83 51.2 84.5 51.4 86.1 51.6 87.6 51.7 89.1 51.9 90.6 52.1 92.2 52.2 93.7 52.4 95.2 52.6 96.7 52.9 98.3 53.2 99.8 53.5 101.3 54 102.8 54.4 104.4 54.9 105.9 55.4 107.4 55.8 108.9 56.1 110.5 56.4 112 56.6 113.5 56.8 115 56.9 116.6 57.1 118.1 57.2 119.6 57.3 121.1 57.4 122.6 57.5 124.2 57.5 125.7 57.4 127.2 57.4 128.7 57.3 130.3 57.2 131.8 57.2 133.3 57.1 134.8 57.1 136.4 57.1 137.9 57.1 139.4 57.1 140.9 57.1 142.5 57.1 144 57 145.5 57 147 56.9 148.6 56.9 150.1 56.8 151.6 56.8 153.1 56.9 154.7 57.1 156.2 57.3 157.7 57.6 159.2 58 160.8 58.3 162.3 58.6 163.8 58.8 165.3 58.8 166.9 58.5 168.4 57.8 169.9 56.8 171.4 55.5 173 54.1 174.5"/>
    <polygon class="cls-13" points="54.1 174.5 40.1 174.5 38.6 173 37.3 171.4 36.3 169.9 35.7 168.4 35.3 166.9 35.3 165.3 35.5 163.8 35.8 162.3 36.2 160.8 36.5 159.2 36.8 157.7 37.1 156.2 37.2 154.7 37.3 153.1 37.3 151.6 37.3 150.1 37.2 148.6 37.1 147 37.1 145.5 37.1 144 37 142.5 37 140.9 37 139.4 37 137.9 37 136.4 37 134.8 37 133.3 36.9 131.8 36.9 130.3 36.8 128.7 36.7 127.2 36.7 125.7 36.7 124.2 36.7 122.6 36.8 121.1 36.9 119.6 37.1 118.1 37.2 116.6 37.4 115 37.5 113.5 37.8 112 38 110.5 38.4 108.9 38.8 107.4 39.2 105.9 39.7 104.4 40.2 102.8 40.6 101.3 41 99.8 41.3 98.3 41.5 96.7 41.7 95.2 41.9 93.7 42.1 92.2 42.2 90.6 42.4 89.1 42.6 87.6 42.7 86.1 42.9 84.5 43.1 83 43.3 81.5 43.5 80 43.7 78.4 43.9 76.9 44.1 75.4 44.3 73.9 44.5 72.3 44.7 70.8 44.8 69.3 44.9 67.8 45.1 66.2 45.2 64.7 45.4 63.2 45.5 61.7 45.7 60.1 45.8 58.6 46 57.1 46.1 55.6 46.2 54 46.3 52.5 46.4 51 46.5 49.5 46.6 47.9 46.6 46.4 46.7 44.9 46.7 43.4 46.8 41.8 46.8 40.3 46.8 38.8 46.9 37.3 46.9 35.7 46.9 34.2 46.9 32.7 47 31.2 47 29.6 47 28.1 47 26.6 47 25.1 47 23.5 47.2 23.5 47.2 25.1 47.2 26.6 47.2 28.1 47.2 29.6 47.2 31.2 47.2 32.7 47.2 34.2 47.2 35.7 47.3 37.3 47.3 38.8 47.3 40.3 47.4 41.8 47.4 43.4 47.5 44.9 47.5 46.4 47.6 47.9 47.6 49.5 47.7 51 47.8 52.5 47.9 54 48 55.6 48.2 57.1 48.3 58.6 48.4 60.1 48.6 61.7 48.8 63.2 48.9 64.7 49 66.2 49.2 67.8 49.3 69.3 49.5 70.8 49.6 72.3 49.8 73.9 50 75.4 50.2 76.9 50.4 78.4 50.6 80 50.8 81.5 51 83 51.2 84.5 51.4 86.1 51.6 87.6 51.7 89.1 51.9 90.6 52.1 92.2 52.2 93.7 52.4 95.2 52.6 96.7 52.9 98.3 53.2 99.8 53.5 101.3 54 102.8 54.4 104.4 54.9 105.9 55.4 107.4 55.8 108.9 56.1 110.5 56.4 112 56.6 113.5 56.8 115 56.9 116.6 57.1 118.1 57.2 119.6 57.3 121.1 57.4 122.6 57.5 124.2 57.5 125.7 57.4 127.2 57.4 128.7 57.3 130.3 57.2 131.8 57.2 133.3 57.1 134.8 57.1 136.4 57.1 137.9 57.1 139.4 57.1 140.9 57.1 142.5 57.1 144 57 145.5 57 147 56.9 148.6 56.9 150.1 56.8 151.6 56.8 153.1 56.9 154.7 57.1 156.2 57.3 157.7 57.6 159.2 58 160.8 58.3 162.3 58.6 163.8 58.8 165.3 58.8 166.9 58.5 168.4 57.8 169.9 56.8 171.4 55.5 173 54.1 174.5"/>
  </g>
  <g class="cls-27">
    <polygon class="cls-23" points="113.6 174.4 92.8 174.4 90.7 173 89.1 171.6 88.4 170.2 88.5 168.8 89.3 167.4 90.7 166 92.2 164.6 93.8 163.2 95.3 161.8 96.5 160.4 97.4 159 98.1 157.6 98.5 156.2 98.6 154.7 98.4 153.3 97.9 151.9 97.1 150.5 95.9 149.1 94.6 147.7 93.1 146.3 91.6 144.9 90.4 143.5 89.4 142.1 88.9 140.7 88.7 139.3 88.7 137.9 88.9 136.5 89.1 135.1 89.2 133.7 89.2 132.3 89.2 130.8 89 129.4 88.9 128 88.7 126.6 88.6 125.2 88.7 123.8 89 122.4 89.5 121 90.4 119.6 91.4 118.2 92.6 116.8 93.8 115.4 94.9 114 95.8 112.6 96.5 111.2 96.9 109.8 97.1 108.4 97.2 107 97.1 105.5 97.1 104.1 97.1 102.7 97.1 101.3 97.1 99.9 97.3 98.5 97.5 97.1 97.7 95.7 97.9 94.3 98.1 92.9 98.4 91.5 98.7 90.1 98.9 88.7 99.3 87.3 99.6 85.9 99.9 84.5 100.3 83.1 100.6 81.7 101 80.2 101.3 78.8 101.6 77.4 101.8 76 102.1 74.6 102.2 73.2 102.4 71.8 102.5 70.4 102.6 69 102.7 67.6 102.7 66.2 102.8 64.8 102.8 63.4 102.8 62 102.8 60.6 102.9 59.2 102.9 57.8 102.9 56.4 102.9 54.9 102.9 53.5 103 52.1 103 50.7 103 49.3 103 47.9 103 46.5 103 45.1 103.1 43.7 103.1 42.3 103.1 40.9 103.1 39.5 103.1 38.1 103.1 36.7 103.1 35.3 103.2 35.3 103.2 36.7 103.3 38.1 103.3 39.5 103.3 40.9 103.3 42.3 103.3 43.7 103.3 45.1 103.3 46.5 103.4 47.9 103.4 49.3 103.4 50.7 103.4 52.1 103.4 53.5 103.4 54.9 103.5 56.4 103.5 57.8 103.5 59.2 103.5 60.6 103.5 62 103.6 63.4 103.6 64.8 103.6 66.2 103.7 67.6 103.7 69 103.8 70.4 104 71.8 104.1 73.2 104.3 74.6 104.6 76 104.8 77.4 105.1 78.8 105.4 80.2 105.7 81.7 106.1 83.1 106.4 84.5 106.8 85.9 107.1 87.3 107.4 88.7 107.7 90.1 108 91.5 108.2 92.9 108.5 94.3 108.7 95.7 108.9 97.1 109.1 98.5 109.2 99.9 109.3 101.3 109.3 102.7 109.3 104.1 109.2 105.5 109.2 107 109.3 108.4 109.5 109.8 109.9 111.2 110.6 112.6 111.5 114 112.6 115.4 113.8 116.8 115 118.2 116 119.6 116.9 121 117.4 122.4 117.7 123.8 117.8 125.2 117.7 126.6 117.5 128 117.3 129.4 117.2 130.8 117.1 132.3 117.2 133.7 117.3 135.1 117.5 136.5 117.6 137.9 117.7 139.3 117.5 140.7 116.9 142.1 116 143.5 114.7 144.9 113.3 146.3 111.8 147.7 110.4 149.1 109.3 150.5 108.5 151.9 108 153.3 107.8 154.7 107.9 156.2 108.3 157.6 109 159 109.9 160.4 111.1 161.8 112.6 163.2 114.1 164.6 115.7 166 117 167.4 117.9 168.8 118 170.2 117.2 171.6 115.7 173 113.6 174.4"/>
    <polygon class="cls-13" points="113.6 174.4 92.8 174.4 90.7 173 89.1 171.6 88.4 170.2 88.5 168.8 89.3 167.4 90.7 166 92.2 164.6 93.8 163.2 95.3 161.8 96.5 160.4 97.4 159 98.1 157.6 98.5 156.2 98.6 154.7 98.4 153.3 97.9 151.9 97.1 150.5 95.9 149.1 94.6 147.7 93.1 146.3 91.6 144.9 90.4 143.5 89.4 142.1 88.9 140.7 88.7 139.3 88.7 137.9 88.9 136.5 89.1 135.1 89.2 133.7 89.2 132.3 89.2 130.8 89 129.4 88.9 128 88.7 126.6 88.6 125.2 88.7 123.8 89 122.4 89.5 121 90.4 119.6 91.4 118.2 92.6 116.8 93.8 115.4 94.9 114 95.8 112.6 96.5 111.2 96.9 109.8 97.1 108.4 97.2 107 97.1 105.5 97.1 104.1 97.1 102.7 97.1 101.3 97.1 99.9 97.3 98.5 97.5 97.1 97.7 95.7 97.9 94.3 98.1 92.9 98.4 91.5 98.7 90.1 98.9 88.7 99.3 87.3 99.6 85.9 99.9 84.5 100.3 83.1 100.6 81.7 101 80.2 101.3 78.8 101.6 77.4 101.8 76 102.1 74.6 102.2 73.2 102.4 71.8 102.5 70.4 102.6 69 102.7 67.6 102.7 66.2 102.8 64.8 102.8 63.4 102.8 62 102.8 60.6 102.9 59.2 102.9 57.8 102.9 56.4 102.9 54.9 102.9 53.5 103 52.1 103 50.7 103 49.3 103 47.9 103 46.5 103 45.1 103.1 43.7 103.1 42.3 103.1 40.9 103.1 39.5 103.1 38.1 103.1 36.7 103.1 35.3 103.2 35.3 103.2 36.7 103.3 38.1 103.3 39.5 103.3 40.9 103.3 42.3 103.3 43.7 103.3 45.1 103.3 46.5 103.4 47.9 103.4 49.3 103.4 50.7 103.4 52.1 103.4 53.5 103.4 54.9 103.5 56.4 103.5 57.8 103.5 59.2 103.5 60.6 103.5 62 103.6 63.4 103.6 64.8 103.6 66.2 103.7 67.6 103.7 69 103.8 70.4 104 71.8 104.1 73.2 104.3 74.6 104.6 76 104.8 77.4 105.1 78.8 105.4 80.2 105.7 81.7 106.1 83.1 106.4 84.5 106.8 85.9 107.1 87.3 107.4 88.7 107.7 90.1 108 91.5 108.2 92.9 108.5 94.3 108.7 95.7 108.9 97.1 109.1 98.5 109.2 99.9 109.3 101.3 109.3 102.7 109.3 104.1 109.2 105.5 109.2 107 109.3 108.4 109.5 109.8 109.9 111.2 110.6 112.6 111.5 114 112.6 115.4 113.8 116.8 115 118.2 116 119.6 116.9 121 117.4 122.4 117.7 123.8 117.8 125.2 117.7 126.6 117.5 128 117.3 129.4 117.2 130.8 117.1 132.3 117.2 133.7 117.3 135.1 117.5 136.5 117.6 137.9 117.7 139.3 117.5 140.7 116.9 142.1 116 143.5 114.7 144.9 113.3 146.3 111.8 147.7 110.4 149.1 109.3 150.5 108.5 151.9 108 153.3 107.8 154.7 107.9 156.2 108.3 157.6 109 159 109.9 160.4 111.1 161.8 112.6 163.2 114.1 164.6 115.7 166 117 167.4 117.9 168.8 118 170.2 117.2 171.6 115.7 173 113.6 174.4"/>
  </g>
  <g class="cls-41">
    <polygon class="cls-1" points="168.8 174.4 149.8 174.4 147 173 144.7 171.5 143.2 170.1 142.6 168.6 142.6 167.2 142.9 165.7 143.4 164.3 144.1 162.8 144.8 161.4 145.8 159.9 146.8 158.5 147.9 157 148.8 155.6 149.6 154.1 150 152.7 150.1 151.2 149.8 149.8 149.1 148.3 147.9 146.9 146.4 145.4 144.6 144 142.6 142.5 140.9 141.1 139.6 139.6 139 138.2 139.1 136.7 139.9 135.3 141.3 133.8 143 132.4 144.8 130.9 146.6 129.5 148.1 128 149.3 126.6 150.3 125.1 150.9 123.7 151.3 122.2 151.4 120.8 151.4 119.3 151.3 117.9 151.3 116.4 151.3 115 151.4 113.5 151.4 112.1 151.5 110.6 151.8 109.2 152.4 107.7 153.3 106.3 154.4 104.8 155.4 103.4 156.2 102 156.8 100.5 157.3 99.1 157.5 97.6 157.8 96.2 157.9 94.7 158.1 93.3 158.1 91.8 158.2 90.4 158.3 88.9 158.4 87.5 158.6 86 158.7 84.6 158.8 83.1 158.9 81.7 159 80.2 159 78.8 159.1 77.3 159.1 75.9 159.2 74.4 159.2 73 159.2 71.5 159.2 70.1 159.3 68.6 159.3 67.2 159.3 65.7 159.3 64.3 159.3 62.8 159.3 61.4 159.3 59.9 159.3 58.5 159.3 57 159.3 55.6 159.3 54.1 159.3 52.7 159.3 51.2 159.3 49.8 159.3 48.3 159.3 46.9 159.3 45.4 159.3 44 159.3 42.5 159.3 41.1 159.3 39.6 159.3 38.2 159.3 36.7 159.3 35.3 159.3 33.8 159.3 32.4 159.3 30.9 159.3 30.9 159.3 32.4 159.3 33.8 159.3 35.3 159.3 36.7 159.3 38.2 159.3 39.6 159.3 41.1 159.3 42.5 159.3 44 159.3 45.4 159.3 46.9 159.3 48.3 159.3 49.8 159.3 51.2 159.3 52.7 159.3 54.1 159.3 55.6 159.3 57 159.3 58.5 159.3 59.9 159.3 61.4 159.3 62.8 159.3 64.3 159.3 65.7 159.3 67.2 159.4 68.6 159.4 70.1 159.4 71.5 159.4 73 159.4 74.4 159.5 75.9 159.5 77.3 159.6 78.8 159.6 80.2 159.7 81.7 159.8 83.1 159.9 84.6 160 86 160.2 87.5 160.3 88.9 160.4 90.4 160.5 91.8 160.6 93.3 160.7 94.7 160.9 96.2 161.1 97.6 161.4 99.1 161.8 100.5 162.4 102 163.2 103.4 164.2 104.8 165.3 106.3 166.2 107.7 166.8 109.2 167.1 110.6 167.2 112.1 167.2 113.5 167.3 115 167.4 116.4 167.3 117.9 167.3 119.3 167.2 120.8 167.3 122.2 167.7 123.7 168.4 125.1 169.3 126.6 170.5 128 172.1 129.5 173.8 130.9 175.6 132.4 177.3 133.8 178.7 135.3 179.5 136.7 179.6 138.2 179 139.6 177.7 141.1 176 142.5 174 144 172.2 145.4 170.7 146.9 169.5 148.3 168.8 149.8 168.5 151.2 168.6 152.7 169 154.1 169.8 155.6 170.7 157 171.8 158.5 172.8 159.9 173.8 161.4 174.5 162.8 175.2 164.3 175.7 165.7 176 167.2 176 168.6 175.4 170.1 174 171.5 171.7 173 168.8 174.4"/>
    <polygon class="cls-13" points="168.8 174.4 149.8 174.4 147 173 144.7 171.5 143.2 170.1 142.6 168.6 142.6 167.2 142.9 165.7 143.4 164.3 144.1 162.8 144.8 161.4 145.8 159.9 146.8 158.5 147.9 157 148.8 155.6 149.6 154.1 150 152.7 150.1 151.2 149.8 149.8 149.1 148.3 147.9 146.9 146.4 145.4 144.6 144 142.6 142.5 140.9 141.1 139.6 139.6 139 138.2 139.1 136.7 139.9 135.3 141.3 133.8 143 132.4 144.8 130.9 146.6 129.5 148.1 128 149.3 126.6 150.3 125.1 150.9 123.7 151.3 122.2 151.4 120.8 151.4 119.3 151.3 117.9 151.3 116.4 151.3 115 151.4 113.5 151.4 112.1 151.5 110.6 151.8 109.2 152.4 107.7 153.3 106.3 154.4 104.8 155.4 103.4 156.2 102 156.8 100.5 157.3 99.1 157.5 97.6 157.8 96.2 157.9 94.7 158.1 93.3 158.1 91.8 158.2 90.4 158.3 88.9 158.4 87.5 158.6 86 158.7 84.6 158.8 83.1 158.9 81.7 159 80.2 159 78.8 159.1 77.3 159.1 75.9 159.2 74.4 159.2 73 159.2 71.5 159.2 70.1 159.3 68.6 159.3 67.2 159.3 65.7 159.3 64.3 159.3 62.8 159.3 61.4 159.3 59.9 159.3 58.5 159.3 57 159.3 55.6 159.3 54.1 159.3 52.7 159.3 51.2 159.3 49.8 159.3 48.3 159.3 46.9 159.3 45.4 159.3 44 159.3 42.5 159.3 41.1 159.3 39.6 159.3 38.2 159.3 36.7 159.3 35.3 159.3 33.8 159.3 32.4 159.3 30.9 159.3 30.9 159.3 32.4 159.3 33.8 159.3 35.3 159.3 36.7 159.3 38.2 159.3 39.6 159.3 41.1 159.3 42.5 159.3 44 159.3 45.4 159.3 46.9 159.3 48.3 159.3 49.8 159.3 51.2 159.3 52.7 159.3 54.1 159.3 55.6 159.3 57 159.3 58.5 159.3 59.9 159.3 61.4 159.3 62.8 159.3 64.3 159.3 65.7 159.3 67.2 159.4 68.6 159.4 70.1 159.4 71.5 159.4 73 159.4 74.4 159.5 75.9 159.5 77.3 159.6 78.8 159.6 80.2 159.7 81.7 159.8 83.1 159.9 84.6 160 86 160.2 87.5 160.3 88.9 160.4 90.4 160.5 91.8 160.6 93.3 160.7 94.7 160.9 96.2 161.1 97.6 161.4 99.1 161.8 100.5 162.4 102 163.2 103.4 164.2 104.8 165.3 106.3 166.2 107.7 166.8 109.2 167.1 110.6 167.2 112.1 167.2 113.5 167.3 115 167.4 116.4 167.3 117.9 167.3 119.3 167.2 120.8 167.3 122.2 167.7 123.7 168.4 125.1 169.3 126.6 170.5 128 172.1 129.5 173.8 130.9 175.6 132.4 177.3 133.8 178.7 135.3 179.5 136.7 179.6 138.2 179 139.6 177.7 141.1 176 142.5 174 144 172.2 145.4 170.7 146.9 169.5 148.3 168.8 149.8 168.5 151.2 168.6 152.7 169 154.1 169.8 155.6 170.7 157 171.8 158.5 172.8 159.9 173.8 161.4 174.5 162.8 175.2 164.3 175.7 165.7 176 167.2 176 168.6 175.4 170.1 174 171.5 171.7 173 168.8 174.4"/>
  </g>
  <g class="cls-32">
    <polygon class="cls-38" points="232.7 174.5 198.2 174.5 195.4 173.3 193.6 172.1 193 170.9 193.2 169.7 194 168.5 195.1 167.3 196.1 166.1 197 165 197.7 163.8 198.3 162.6 198.6 161.4 198.8 160.2 199 159 199.2 157.8 199.4 156.6 199.8 155.4 200.2 154.2 200.6 153 201.1 151.8 201.5 150.7 201.8 149.5 202 148.3 201.9 147.1 201.8 145.9 201.5 144.7 201.2 143.5 201 142.3 201.1 141.1 201.5 139.9 202.3 138.7 203.2 137.5 204.3 136.4 205.3 135.2 206.1 134 206.7 132.8 207.2 131.6 207.6 130.4 207.9 129.2 208.3 128 208.7 126.8 209.1 125.6 209.5 124.4 209.9 123.2 210.1 122.1 210.1 120.9 210 119.7 209.8 118.5 209.6 117.3 209.4 116.1 209.1 114.9 208.9 113.7 208.6 112.5 208.4 111.3 208.4 110.1 208.6 108.9 209 107.8 209.8 106.6 210.6 105.4 211.5 104.2 212.4 103 213.1 101.8 213.6 100.6 213.9 99.4 214.1 98.2 214.3 97 214.4 95.8 214.5 94.6 214.6 93.5 214.7 92.3 214.8 91.1 214.9 89.9 215 88.7 215.1 87.5 215.2 86.3 215.2 85.1 215.3 83.9 215.3 82.7 215.3 81.5 215.3 80.3 215.3 79.2 215.3 78 215.3 76.8 215.3 75.6 215.3 74.4 215.3 73.2 215.3 72 215.4 70.8 215.4 69.6 215.4 68.4 215.4 67.2 215.4 66 215.4 64.9 215.4 63.7 215.4 62.5 215.4 61.3 215.4 60.1 215.4 58.9 215.4 57.7 215.4 56.5 215.4 56.5 215.4 57.7 215.4 58.9 215.4 60.1 215.4 61.3 215.4 62.5 215.4 63.7 215.4 64.9 215.4 66 215.5 67.2 215.5 68.4 215.5 69.6 215.5 70.8 215.5 72 215.5 73.2 215.5 74.4 215.5 75.6 215.5 76.8 215.5 78 215.5 79.2 215.5 80.3 215.6 81.5 215.6 82.7 215.6 83.9 215.6 85.1 215.7 86.3 215.8 87.5 215.9 88.7 216 89.9 216.1 91.1 216.2 92.3 216.3 93.5 216.4 94.6 216.4 95.8 216.6 97 216.7 98.2 216.9 99.4 217.3 100.6 217.8 101.8 218.5 103 219.3 104.2 220.2 105.4 221.1 106.6 221.8 107.8 222.3 108.9 222.5 110.1 222.4 111.3 222.2 112.5 222 113.7 221.7 114.9 221.5 116.1 221.2 117.3 221 118.5 220.8 119.7 220.7 120.9 220.8 122.1 221 123.2 221.3 124.4 221.7 125.6 222.2 126.8 222.6 128 222.9 129.2 223.3 130.4 223.7 131.6 224.1 132.8 224.8 134 225.6 135.2 226.6 136.4 227.6 137.5 228.6 138.7 229.3 139.9 229.7 141.1 229.8 142.3 229.7 143.5 229.4 144.7 229.1 145.9 228.9 147.1 228.9 148.3 229 149.5 229.3 150.7 229.7 151.8 230.2 153 230.7 154.2 231.1 155.4 231.4 156.6 231.6 157.8 231.8 159 232 160.2 232.2 161.4 232.6 162.6 233.1 163.8 233.8 165 234.7 166.1 235.8 167.3 236.8 168.5 237.6 169.7 237.9 170.9 237.2 172.1 235.4 173.3 232.7 174.5"/>
    <polygon class="cls-13" points="232.7 174.5 198.2 174.5 195.4 173.3 193.6 172.1 193 170.9 193.2 169.7 194 168.5 195.1 167.3 196.1 166.1 197 165 197.7 163.8 198.3 162.6 198.6 161.4 198.8 160.2 199 159 199.2 157.8 199.4 156.6 199.8 155.4 200.2 154.2 200.6 153 201.1 151.8 201.5 150.7 201.8 149.5 202 148.3 201.9 147.1 201.8 145.9 201.5 144.7 201.2 143.5 201 142.3 201.1 141.1 201.5 139.9 202.3 138.7 203.2 137.5 204.3 136.4 205.3 135.2 206.1 134 206.7 132.8 207.2 131.6 207.6 130.4 207.9 129.2 208.3 128 208.7 126.8 209.1 125.6 209.5 124.4 209.9 123.2 210.1 122.1 210.1 120.9 210 119.7 209.8 118.5 209.6 117.3 209.4 116.1 209.1 114.9 208.9 113.7 208.6 112.5 208.4 111.3 208.4 110.1 208.6 108.9 209 107.8 209.8 106.6 210.6 105.4 211.5 104.2 212.4 103 213.1 101.8 213.6 100.6 213.9 99.4 214.1 98.2 214.3 97 214.4 95.8 214.5 94.6 214.6 93.5 214.7 92.3 214.8 91.1 214.9 89.9 215 88.7 215.1 87.5 215.2 86.3 215.2 85.1 215.3 83.9 215.3 82.7 215.3 81.5 215.3 80.3 215.3 79.2 215.3 78 215.3 76.8 215.3 75.6 215.3 74.4 215.3 73.2 215.3 72 215.4 70.8 215.4 69.6 215.4 68.4 215.4 67.2 215.4 66 215.4 64.9 215.4 63.7 215.4 62.5 215.4 61.3 215.4 60.1 215.4 58.9 215.4 57.7 215.4 56.5 215.4 56.5 215.4 57.7 215.4 58.9 215.4 60.1 215.4 61.3 215.4 62.5 215.4 63.7 215.4 64.9 215.4 66 215.5 67.2 215.5 68.4 215.5 69.6 215.5 70.8 215.5 72 215.5 73.2 215.5 74.4 215.5 75.6 215.5 76.8 215.5 78 215.5 79.2 215.5 80.3 215.6 81.5 215.6 82.7 215.6 83.9 215.6 85.1 215.7 86.3 215.8 87.5 215.9 88.7 216 89.9 216.1 91.1 216.2 92.3 216.3 93.5 216.4 94.6 216.4 95.8 216.6 97 216.7 98.2 216.9 99.4 217.3 100.6 217.8 101.8 218.5 103 219.3 104.2 220.2 105.4 221.1 106.6 221.8 107.8 222.3 108.9 222.5 110.1 222.4 111.3 222.2 112.5 222 113.7 221.7 114.9 221.5 116.1 221.2 117.3 221 118.5 220.8 119.7 220.7 120.9 220.8 122.1 221 123.2 221.3 124.4 221.7 125.6 222.2 126.8 222.6 128 222.9 129.2 223.3 130.4 223.7 131.6 224.1 132.8 224.8 134 225.6 135.2 226.6 136.4 227.6 137.5 228.6 138.7 229.3 139.9 229.7 141.1 229.8 142.3 229.7 143.5 229.4 144.7 229.1 145.9 228.9 147.1 228.9 148.3 229 149.5 229.3 150.7 229.7 151.8 230.2 153 230.7 154.2 231.1 155.4 231.4 156.6 231.6 157.8 231.8 159 232 160.2 232.2 161.4 232.6 162.6 233.1 163.8 233.8 165 234.7 166.1 235.8 167.3 236.8 168.5 237.6 169.7 237.9 170.9 237.2 172.1 235.4 173.3 232.7 174.5"/>
  </g>
  <rect class="cls-12" x="25.2" y="16" width="222.8" height="166"/>
  <rect class="cls-12" x="25.2" y="16" width="222.8" height="166"/>
  <rect class="cls-12" x="25.2" y="16" width="222.8" height="166"/>
  <rect class="cls-12" x="25.2" y="16" width="222.8" height="166"/>
  <rect class="cls-12" x="25.2" y="16" width="222.8" height="166"/>
  <line class="cls-21" x1="25.2" y1="174.5" x2="23" y2="174.5"/>
  <line class="cls-17" x1="25.2" y1="174.5" x2="23" y2="174.5"/>
  <rect class="cls-12" x="25.2" y="16" width="222.8" height="166"/>
  <line class="cls-21" x1="25.2" y1="142.5" x2="23" y2="142.5"/>
  <line class="cls-17" x1="25.2" y1="142.5" x2="23" y2="142.5"/>
  <rect class="cls-12" x="25.2" y="16" width="222.8" height="166"/>
  <line class="cls-21" x1="25.2" y1="110.5" x2="23" y2="110.5"/>
  <line class="cls-17" x1="25.2" y1="110.5" x2="23" y2="110.5"/>
  <rect class="cls-12" x="25.2" y="16" width="222.8" height="166"/>
  <line class="cls-21" x1="25.2" y1="78.5" x2="23" y2="78.5"/>
  <line class="cls-17" x1="25.2" y1="78.5" x2="23" y2="78.5"/>
  <rect class="cls-12" x="25.2" y="16" width="222.8" height="166"/>
  <line class="cls-21" x1="25.2" y1="46.6" x2="23" y2="46.6"/>
  <line class="cls-17" x1="25.2" y1="46.6" x2="23" y2="46.6"/>
  <g class="cls-7">
    <line class="cls-15" x1="47.1" y1="174.5" x2="47.1" y2="41.2"/>
  </g>
  <g class="cls-28">
    <line class="cls-19" x1="47.1" y1="155.6" x2="47.1" y2="109.9"/>
  </g>
  <g class="cls-2">
    <line class="cls-8" x1="48.5" y1="132.4" x2="45.6" y2="132.4"/>
  </g>
  <g class="cls-3">
    <line class="cls-15" x1="103.2" y1="174.4" x2="103.2" y2="61.9"/>
  </g>
  <g class="cls-30">
    <line class="cls-19" x1="103.2" y1="157" x2="103.2" y2="118.5"/>
  </g>
  <g class="cls-24">
    <line class="cls-8" x1="104.6" y1="133.7" x2="101.7" y2="133.7"/>
  </g>
  <g class="cls-25">
    <line class="cls-15" x1="159.3" y1="174.4" x2="159.3" y2="81.1"/>
  </g>
  <g class="cls-26">
    <line class="cls-19" x1="159.3" y1="161.3" x2="159.3" y2="129"/>
  </g>
  <g class="cls-33">
    <line class="cls-8" x1="160.8" y1="141" x2="157.8" y2="141"/>
  </g>
  <g class="cls-42">
    <line class="cls-15" x1="215.4" y1="174.5" x2="215.4" y2="90.8"/>
  </g>
  <g class="cls-36">
    <line class="cls-19" x1="215.4" y1="166.5" x2="215.4" y2="136.1"/>
  </g>
  <g class="cls-5">
    <line class="cls-8" x1="216.9" y1="152.7" x2="214" y2="152.7"/>
  </g>
  <g class="cls-40">
    <polyline class="cls-18" points="47.1 132.4 103.2 133.7 159.3 141 215.4 152.7"/>
    <g class="cls-4">
      <path class="cls-39" d="M47.1,134.3c.5,0,1-.2,1.3-.5.4-.4.5-.8.5-1.3s-.2-1-.5-1.3c-.4-.4-.8-.5-1.3-.5s-1,.2-1.3.5c-.4.4-.5.8-.5,1.3s.2,1,.5,1.3c.4.4.8.5,1.3.5Z"/>
      <path class="cls-9" d="M47.1,134.3c.5,0,1-.2,1.3-.5.4-.4.5-.8.5-1.3s-.2-1-.5-1.3c-.4-.4-.8-.5-1.3-.5s-1,.2-1.3.5c-.4.4-.5.8-.5,1.3s.2,1,.5,1.3c.4.4.8.5,1.3.5Z"/>
    </g>
    <g class="cls-6">
      <path class="cls-39" d="M103.2,135.6c.5,0,1-.2,1.3-.5.4-.4.5-.8.5-1.3s-.2-1-.5-1.3c-.4-.4-.8-.5-1.3-.5s-1,.2-1.3.5c-.4.4-.5.8-.5,1.3s.2,1,.5,1.3c.4.4.8.5,1.3.5Z"/>
      <path class="cls-9" d="M103.2,135.6c.5,0,1-.2,1.3-.5.4-.4.5-.8.5-1.3s-.2-1-.5-1.3c-.4-.4-.8-.5-1.3-.5s-1,.2-1.3.5c-.4.4-.5.8-.5,1.3s.2,1,.5,1.3c.4.4.8.5,1.3.5Z"/>
    </g>
    <g class="cls-37">
      <path d="M159.3,142.9c.5,0,1-.2,1.3-.5.4-.4.5-.8.5-1.3s-.2-1-.5-1.3c-.4-.4-.8-.5-1.3-.5s-1,.2-1.3.5c-.4.4-.5.8-.5,1.3s.2,1,.5,1.3c.4.4.8.5,1.3.5Z"/>
      <path class="cls-22" d="M159.3,142.9c.5,0,1-.2,1.3-.5.4-.4.5-.8.5-1.3s-.2-1-.5-1.3c-.4-.4-.8-.5-1.3-.5s-1,.2-1.3.5c-.4.4-.5.8-.5,1.3s.2,1,.5,1.3c.4.4.8.5,1.3.5Z"/>
    </g>
    <g class="cls-29">
      <path d="M215.4,154.6c.5,0,1-.2,1.3-.5.4-.4.5-.8.5-1.3s-.2-1-.5-1.3c-.4-.4-.8-.5-1.3-.5s-1,.2-1.3.5c-.4.4-.5.8-.5,1.3s.2,1,.5,1.3c.4.4.8.5,1.3.5Z"/>
      <path class="cls-22" d="M215.4,154.6c.5,0,1-.2,1.3-.5.4-.4.5-.8.5-1.3s-.2-1-.5-1.3c-.4-.4-.8-.5-1.3-.5s-1,.2-1.3.5c-.4.4-.5.8-.5,1.3s.2,1,.5,1.3c.4.4.8.5,1.3.5Z"/>
    </g>
  </g>
  <line class="cls-11" x1="25.2" y1="174.5" x2="25.2" y2="6"/>
  <line class="cls-11" x1="248" y1="174.5" x2="248" y2="6"/>
  <line class="cls-11" x1="25.2" y1="6" x2="248" y2="6"/>
  <text class="cls-34" transform="translate(8.9 144.9) rotate(-90)"><tspan x="0" y="0">Angle error (degrees)</tspan></text>
  <text class="cls-35" transform="translate(179.4 42.5)"><tspan x="0" y="0">****</tspan></text>
  <polyline class="cls-16" points="163.4 42.5 187.3 42.5 215.4 42.5 215.4 46.6"/>
  <text class="cls-35" transform="translate(151.3 28.7)"><tspan x="0" y="0">****</tspan></text>
  <polyline class="cls-16" points="103.3 32 103.3 28 154.9 28 215.4 28 215.4 32"/>
  <text class="cls-35" transform="translate(123.2 14.8)"><tspan x="0" y="0">****</tspan></text>
  <polyline class="cls-16" points="47.1 18.1 47.1 14.1 124.6 14.1 215.4 14.1 215.4 18.1"/>
</svg>